<!-- icon666.com - MILLIONS vector ICONS FREE --><svg fill="none" viewBox="0 0 24 24" xmlns="http://www.w3.org/2000/svg"><path clip-rule="evenodd" d="m22 12c0 5.5228-4.4772 10-10 10-5.52285 0-10-4.4772-10-10 0-5.52285 4.47715-10 10-10 5.5228 0 10 4.47715 10 10zm-4.2863 4.4006c.3279.3345.3279.8644-.0001 1.199-1.4519 1.4813-3.4754 2.4004-5.7135 2.4004-2.23824 0-4.26176-.9191-5.71374-2.4006-.32791-.3345-.3279-.8644.00001-1.199 1.45197-1.4813 3.47544-2.4004 5.71363-2.4004 2.2382 0 4.2617.9192 5.7137 2.4006zm-5.7137-4.4006c1.6569 0 3-1.3431 3-3 0-1.65685-1.3431-3-3-3s-3 1.34315-3 3c0 1.6569 1.3431 3 3 3z" fill="rgb(0,0,0)" fill-rule="evenodd" style="fill: rgb(205, 19, 41);"></path></svg>