<svg width="21" height="19" viewBox="0 0 21 19" fill="none" xmlns="http://www.w3.org/2000/svg">
<path id="Vector" d="M20.7144 16.4267L16.6248 12.7273C16.4403 12.5603 16.1901 12.4675 15.9275 12.4675H15.2589C16.391 11.1577 17.0637 9.5102 17.0637 7.718C17.0637 3.45455 13.2449 0 8.53187 0C3.81883 0 0 3.45455 0 7.718C0 11.9814 3.81883 15.436 8.53187 15.436C10.5131 15.436 12.3343 14.8275 13.7823 13.8033V14.4082C13.7823 14.6456 13.8848 14.872 14.0694 15.039L18.1589 18.7384C18.5445 19.0872 19.168 19.0872 19.5495 18.7384L20.7103 17.6883C21.0959 17.3395 21.0959 16.7755 20.7144 16.4267ZM8.53187 12.4675C5.63186 12.4675 3.28149 10.3451 3.28149 7.718C3.28149 5.09462 5.62776 2.96846 8.53187 2.96846C11.4319 2.96846 13.7823 5.09091 13.7823 7.718C13.7823 10.3414 11.436 12.4675 8.53187 12.4675Z" fill="#5C5E5C"/>
</svg>
