<svg width="45" height="29" viewBox="0 0 45 29" fill="none" xmlns="http://www.w3.org/2000/svg">
<path id="Vector" d="M21.9034 7.52336L7.50059 17.354V27.9642C7.50059 28.2389 7.63228 28.5024 7.86668 28.6966C8.10108 28.8909 8.419 29 8.7505 29L17.5045 28.9812C17.8349 28.9799 18.1512 28.8701 18.3843 28.676C18.6173 28.4819 18.7482 28.2192 18.7482 27.9454V21.7492C18.7482 21.4745 18.8798 21.211 19.1143 21.0167C19.3487 20.8225 19.6666 20.7134 19.9981 20.7134H24.9977C25.3292 20.7134 25.6471 20.8225 25.8815 21.0167C26.1159 21.211 26.2476 21.4745 26.2476 21.7492V27.9409C26.2471 28.0772 26.279 28.2122 26.3416 28.3383C26.4042 28.4643 26.4962 28.5789 26.6123 28.6754C26.7284 28.7719 26.8664 28.8485 27.0183 28.9008C27.1702 28.953 27.333 28.9799 27.4975 28.9799L36.2484 29C36.5799 29 36.8978 28.8909 37.1322 28.6966C37.3666 28.5024 37.4983 28.2389 37.4983 27.9642V17.3469L23.0986 7.52336C22.9293 7.41028 22.7184 7.34861 22.501 7.34861C22.2836 7.34861 22.0727 7.41028 21.9034 7.52336V7.52336ZM44.654 14.2051L38.1232 9.74392V0.776872C38.1232 0.570833 38.0245 0.373233 37.8487 0.227541C37.6729 0.081849 37.4344 0 37.1858 0H32.8111C32.5625 0 32.3241 0.081849 32.1483 0.227541C31.9725 0.373233 31.8737 0.570833 31.8737 0.776872V5.4776L24.8797 0.708896C24.2085 0.251175 23.3663 0.000914991 22.4971 0.000914991C21.6279 0.000914991 20.7857 0.251175 20.1145 0.708896L0.340207 14.2051C0.245283 14.2701 0.166748 14.35 0.10909 14.4402C0.0514319 14.5304 0.0157806 14.6291 0.00417324 14.7307C-0.00743416 14.8323 0.0052298 14.9348 0.0414415 15.0324C0.0776532 15.1299 0.136703 15.2206 0.215217 15.2992L2.20725 17.3061C2.28555 17.385 2.38186 17.4504 2.49066 17.4984C2.59947 17.5464 2.71863 17.5762 2.84134 17.586C2.96404 17.5958 3.08787 17.5854 3.20574 17.5555C3.32361 17.5256 3.4332 17.4767 3.52824 17.4117L21.9034 4.86905C22.0727 4.75596 22.2836 4.6943 22.501 4.6943C22.7184 4.6943 22.9293 4.75596 23.0986 4.86905L41.4745 17.4117C41.5694 17.4767 41.6788 17.5257 41.7965 17.5557C41.9143 17.5857 42.0379 17.5962 42.1605 17.5866C42.2831 17.5769 42.4023 17.5474 42.5111 17.4996C42.6199 17.4518 42.7163 17.3867 42.7947 17.3081L44.7868 15.3011C44.8652 15.2221 44.924 15.1309 44.9598 15.0329C44.9956 14.935 45.0077 14.8321 44.9953 14.7303C44.983 14.6284 44.9465 14.5296 44.8879 14.4395C44.8293 14.3493 44.7498 14.2697 44.654 14.2051V14.2051Z" fill="#22C7A9"/>
</svg>
