<svg width="37" height="27" viewBox="0 0 37 27" fill="none" xmlns="http://www.w3.org/2000/svg">
<path id="Vector" d="M11.1 21.6C9.065 21.6 7.4185 22.815 7.4185 24.3C7.4185 25.785 9.065 27 11.1 27C13.135 27 14.8 25.785 14.8 24.3C14.8 22.815 13.135 21.6 11.1 21.6ZM0 0V2.7H3.7L10.36 12.9465L7.8625 16.254C7.5665 16.632 7.4 17.0775 7.4 17.55C7.4 19.035 9.065 20.25 11.1 20.25H33.3V17.55H11.877C11.618 17.55 11.4145 17.4015 11.4145 17.2125L11.47 17.0505L13.135 14.85H26.9175C28.305 14.85 29.526 14.2965 30.155 13.4595L36.778 4.698C36.926 4.509 37 4.2795 37 4.05C37 3.3075 36.1675 2.7 35.15 2.7H7.7885L6.0495 0H0ZM29.6 21.6C27.565 21.6 25.9185 22.815 25.9185 24.3C25.9185 25.785 27.565 27 29.6 27C31.635 27 33.3 25.785 33.3 24.3C33.3 22.815 31.635 21.6 29.6 21.6Z" fill="#C5C5C5"/>
</svg>
