<svg width="44" height="44" viewBox="0 0 44 44" fill="none" xmlns="http://www.w3.org/2000/svg">
<path id="Vector" d="M22 0C9.84677 0 0 9.84677 0 22C0 34.1532 9.84677 44 22 44C34.1532 44 44 34.1532 44 22C44 9.84677 34.1532 0 22 0ZM34.7742 24.4839C34.7742 25.0694 34.2952 25.5484 33.7097 25.5484H25.5484V33.7097C25.5484 34.2952 25.0694 34.7742 24.4839 34.7742H19.5161C18.9306 34.7742 18.4516 34.2952 18.4516 33.7097V25.5484H10.2903C9.70484 25.5484 9.22581 25.0694 9.22581 24.4839V19.5161C9.22581 18.9306 9.70484 18.4516 10.2903 18.4516H18.4516V10.2903C18.4516 9.70484 18.9306 9.22581 19.5161 9.22581H24.4839C25.0694 9.22581 25.5484 9.70484 25.5484 10.2903V18.4516H33.7097C34.2952 18.4516 34.7742 18.9306 34.7742 19.5161V24.4839Z" fill="#22C7A9"/>
</svg>
